<?xml version="1.0" encoding="UTF-8" standalone="no"?>
<!-- Created with Inkscape (http://www.inkscape.org/) -->

<svg
   width="60.815296mm"
   height="43.091854mm"
   viewBox="0 0 60.815296 43.091854"
   version="1.1"
   id="svg1"
   xmlns="http://www.w3.org/2000/svg"
   xmlns:svg="http://www.w3.org/2000/svg">
  <defs
     id="defs1" />
  <g
     id="layer1"
     transform="translate(-48.659546,-108.10347)">
    <path
       style="fill:#ffffff;stroke:#000000;stroke-width:5.45321"
       d="m 295.66366,566.79744 c -3.50251,-1.22851 -7.94581,-3.43695 -9.87399,-4.90765 l -3.50578,-2.67399 -6.47806,2.63443 c -9.1474,3.71996 -21.47701,4.29378 -30.88161,1.43721 -11.80707,-3.58628 -19.84599,-11.65375 -20.95659,-21.031 l -0.59735,-5.04371 h -3.51147 c -9.24863,0 -21.91234,-5.8276 -26.6816,-12.27836 -5.13164,-6.94093 -6.53816,-11.02314 -6.5405,-18.9829 -0.002,-5.8346 0.49679,-8.78245 2.06188,-12.19254 2.83659,-6.1805 9.11662,-12.71964 15.06044,-15.68183 l 4.97,-2.47686 0.0371,-7.48422 c 0.0306,-6.17987 0.50187,-8.43414 2.70381,-12.93475 6.32936,-12.93673 23.3952,-20.28082 36.64034,-15.76775 4.4242,1.50748 4.49621,1.49751 8.77223,-1.21427 2.37128,-1.50382 6.26224,-3.02676 8.64658,-3.38431 3.64483,-0.54658 4.69738,-1.2239 6.60988,-4.2535 5.35127,-8.47695 16.64819,-16.04417 27.29505,-18.28353 19.73099,-4.15003 40.67642,5.45838 48.64403,22.31473 1.56233,3.30528 3.11151,5.39378 3.78845,5.1073 0.62989,-0.26656 3.48846,-1.21104 6.35236,-2.09885 17.71943,-5.49298 36.33764,8.92024 37.42144,28.96969 0.34088,6.30584 0.57227,6.92286 3.24649,8.65696 7.52366,4.87871 12.95176,16.13899 12.03972,24.97573 -1.20953,11.71927 -11.75114,23.18124 -24.20365,26.31682 -4.05479,1.02101 -4.37515,1.32817 -4.39474,4.21357 -0.055,8.10181 -8.58394,17.79603 -18.08758,20.55882 -6.13224,1.78269 -13.56766,1.25953 -19.05919,-1.34103 -2.09839,-0.99371 -3.68134,-1.28525 -3.88424,-0.71536 -1.40033,3.93314 -5.37894,9.13672 -9.18572,12.01388 -6.3857,4.82631 -12.43983,6.85883 -21.90351,7.35354 -6.81618,0.35632 -9.23519,0.0559 -14.54423,-1.80627 z"
       id="path2"
       transform="scale(0.26458333)" />
  </g>
</svg>
